<svg xmlns="http://www.w3.org/2000/svg" style="display: none;">
  <defs>
    <!-- Camera Icon -->
    <symbol id="icon-camera" viewBox="0 0 24 24" fill="none" stroke="currentColor" stroke-width="2">
      <path d="M23 19a2 2 0 0 1-2 2H3a2 2 0 0 1-2-2V8a2 2 0 0 1 2-2h4l2-3h6l2 3h4a2 2 0 0 1 2 2z"/>
      <circle cx="12" cy="13" r="4"/>
    </symbol>
    
    <!-- Image Icon -->
    <symbol id="icon-image" viewBox="0 0 24 24" fill="none" stroke="currentColor" stroke-width="2">
      <rect x="3" y="3" width="18" height="18" rx="2" ry="2"/>
      <circle cx="8.5" cy="8.5" r="1.5"/>
      <polyline points="21,15 16,10 5,21"/>
    </symbol>
    
    <!-- Grid Icon -->
    <symbol id="icon-grid" viewBox="0 0 24 24" fill="none" stroke="currentColor" stroke-width="2">
      <rect x="3" y="3" width="7" height="7"/>
      <rect x="14" y="3" width="7" height="7"/>
      <rect x="14" y="14" width="7" height="7"/>
      <rect x="3" y="14" width="7" height="7"/>
    </symbol>
    
    <!-- Sun Icon -->
    <symbol id="icon-sun" viewBox="0 0 24 24" fill="none" stroke="currentColor" stroke-width="2">
      <circle cx="12" cy="12" r="5"/>
      <line x1="12" y1="1" x2="12" y2="3"/>
      <line x1="12" y1="21" x2="12" y2="23"/>
      <line x1="4.22" y1="4.22" x2="5.64" y2="5.64"/>
      <line x1="18.36" y1="18.36" x2="19.78" y2="19.78"/>
      <line x1="1" y1="12" x2="3" y2="12"/>
      <line x1="21" y1="12" x2="23" y2="12"/>
      <line x1="4.22" y1="19.78" x2="5.64" y2="18.36"/>
      <line x1="18.36" y1="5.64" x2="19.78" y2="4.22"/>
    </symbol>
    
    <!-- Moon Icon -->
    <symbol id="icon-moon" viewBox="0 0 24 24" fill="none" stroke="currentColor" stroke-width="2">
      <path d="M21 12.79A9 9 0 1 1 11.21 3 7 7 0 0 0 21 12.79z"/>
    </symbol>
    
    <!-- Menu Icon -->
    <symbol id="icon-menu" viewBox="0 0 24 24" fill="none" stroke="currentColor" stroke-width="2">
      <line x1="3" y1="6" x2="21" y2="6"/>
      <line x1="3" y1="12" x2="21" y2="12"/>
      <line x1="3" y1="18" x2="21" y2="18"/>
    </symbol>
    
    <!-- Close/X Icon -->
    <symbol id="icon-x" viewBox="0 0 24 24" fill="none" stroke="currentColor" stroke-width="2">
      <line x1="18" y1="6" x2="6" y2="18"/>
      <line x1="6" y1="6" x2="18" y2="18"/>
    </symbol>
    
    <!-- Plus Icon -->
    <symbol id="icon-plus" viewBox="0 0 24 24" fill="none" stroke="currentColor" stroke-width="2">
      <line x1="12" y1="5" x2="12" y2="19"/>
      <line x1="5" y1="12" x2="19" y2="12"/>
    </symbol>
    
    <!-- Edit/Pen Icon -->
    <symbol id="icon-edit" viewBox="0 0 24 24" fill="none" stroke="currentColor" stroke-width="2">
      <path d="M11 4H4a2 2 0 0 0-2 2v14a2 2 0 0 0 2 2h14a2 2 0 0 0 2-2v-7"/>
      <path d="M18.5 2.5a2.121 2.121 0 0 1 3 3L12 15l-4 1 1-4 9.5-9.5z"/>
    </symbol>
    
    <!-- Trash/Delete Icon -->
    <symbol id="icon-trash" viewBox="0 0 24 24" fill="none" stroke="currentColor" stroke-width="2">
      <polyline points="3,6 5,6 21,6"/>
      <path d="M19 6v14a2 2 0 0 1-2 2H7a2 2 0 0 1-2-2V6m3 0V4a2 2 0 0 1 2-2h4a2 2 0 0 1 2 2v2"/>
      <line x1="10" y1="11" x2="10" y2="17"/>
      <line x1="14" y1="11" x2="14" y2="17"/>
    </symbol>
    
    <!-- Settings/Gear Icon -->
    <symbol id="icon-settings" viewBox="0 0 24 24" fill="none" stroke="currentColor" stroke-width="2">
      <circle cx="12" cy="12" r="3"/>
      <path d="M19.4 15a1.65 1.65 0 0 0 .33 1.82l.06.06a2 2 0 0 1 0 2.83 2 2 0 0 1-2.83 0l-.06-.06a1.65 1.65 0 0 0-1.82-.33 1.65 1.65 0 0 0-1 1.51V21a2 2 0 0 1-2 2 2 2 0 0 1-2-2v-.09A1.65 1.65 0 0 0 9 19.4a1.65 1.65 0 0 0-1.82.33l-.06.06a2 2 0 0 1-2.83 0 2 2 0 0 1 0-2.83l.06-.06a1.65 1.65 0 0 0 .33-1.82 1.65 1.65 0 0 0-1.51-1H3a2 2 0 0 1-2-2 2 2 0 0 1 2-2h.09A1.65 1.65 0 0 0 4.6 9a1.65 1.65 0 0 0-.33-1.82l-.06-.06a2 2 0 0 1 0-2.83 2 2 0 0 1 2.83 0l.06.06a1.65 1.65 0 0 0 1.82.33H9a1.65 1.65 0 0 0 1 1.51V3a2 2 0 0 1 2-2 2 2 0 0 1 2 2v.09a1.65 1.65 0 0 0 1 1.51 1.65 1.65 0 0 0 1.82-.33l.06-.06a2 2 0 0 1 2.83 0 2 2 0 0 1 0 2.83l-.06.06a1.65 1.65 0 0 0-.33 1.82V9a1.65 1.65 0 0 0 1.51 1H21a2 2 0 0 1 2 2 2 2 0 0 1-2 2h-.09a1.65 1.65 0 0 0-1.51 1z"/>
    </symbol>
    
    <!-- User Icon -->
    <symbol id="icon-user" viewBox="0 0 24 24" fill="none" stroke="currentColor" stroke-width="2">
      <path d="M20 21v-2a4 4 0 0 0-4-4H8a4 4 0 0 0-4 4v2"/>
      <circle cx="12" cy="7" r="4"/>
    </symbol>
    
    <!-- Lock Icon -->
    <symbol id="icon-lock" viewBox="0 0 24 24" fill="none" stroke="currentColor" stroke-width="2">
      <rect x="3" y="11" width="18" height="11" rx="2" ry="2"/>
      <circle cx="12" cy="16" r="1"/>
      <path d="M7 11V7a5 5 0 0 1 10 0v4"/>
    </symbol>
    
    <!-- Eye Icon -->
    <symbol id="icon-eye" viewBox="0 0 24 24" fill="none" stroke="currentColor" stroke-width="2">
      <path d="M1 12s4-8 11-8 11 8 11 8-4 8-11 8-11-8-11-8z"/>
      <circle cx="12" cy="12" r="3"/>
    </symbol>
    
    <!-- Eye Off Icon -->
    <symbol id="icon-eye-off" viewBox="0 0 24 24" fill="none" stroke="currentColor" stroke-width="2">
      <path d="M17.94 17.94A10.07 10.07 0 0 1 12 20c-7 0-11-8-11-8a18.45 18.45 0 0 1 5.06-5.94M9.9 4.24A9.12 9.12 0 0 1 12 4c7 0 11 8 11 8a18.5 18.5 0 0 1-2.16 3.19m-6.72-1.07a3 3 0 1 1-4.24-4.24"/>
      <line x1="1" y1="1" x2="23" y2="23"/>
    </symbol>
    
    <!-- Download Icon -->
    <symbol id="icon-download" viewBox="0 0 24 24" fill="none" stroke="currentColor" stroke-width="2">
      <path d="M21 15v4a2 2 0 0 1-2 2H5a2 2 0 0 1-2-2v-4"/>
      <polyline points="7,10 12,15 17,10"/>
      <line x1="12" y1="15" x2="12" y2="3"/>
    </symbol>
    
    <!-- Upload Icon -->
    <symbol id="icon-upload" viewBox="0 0 24 24" fill="none" stroke="currentColor" stroke-width="2">
      <path d="M21 15v4a2 2 0 0 1-2 2H5a2 2 0 0 1-2-2v-4"/>
      <polyline points="17,8 12,3 7,8"/>
      <line x1="12" y1="3" x2="12" y2="15"/>
    </symbol>
    
    <!-- Search Icon -->
    <symbol id="icon-search" viewBox="0 0 24 24" fill="none" stroke="currentColor" stroke-width="2">
      <circle cx="11" cy="11" r="8"/>
      <path d="M21 21l-4.35-4.35"/>
    </symbol>
    
    <!-- Filter Icon -->
    <symbol id="icon-filter" viewBox="0 0 24 24" fill="none" stroke="currentColor" stroke-width="2">
      <polygon points="22,3 2,3 10,12.46 10,19 14,21 14,12.46"/>
    </symbol>
    
    <!-- Sort Icon -->
    <symbol id="icon-sort" viewBox="0 0 24 24" fill="none" stroke="currentColor" stroke-width="2">
      <path d="M3 6h18"/>
      <path d="M7 12h10"/>
      <path d="M10 18h4"/>
    </symbol>
    
    <!-- Chevron Down Icon -->
    <symbol id="icon-chevron-down" viewBox="0 0 24 24" fill="none" stroke="currentColor" stroke-width="2">
      <polyline points="6,9 12,15 18,9"/>
    </symbol>
    
    <!-- Chevron Up Icon -->
    <symbol id="icon-chevron-up" viewBox="0 0 24 24" fill="none" stroke="currentColor" stroke-width="2">
      <polyline points="18,15 12,9 6,15"/>
    </symbol>
    
    <!-- Chevron Left Icon -->
    <symbol id="icon-chevron-left" viewBox="0 0 24 24" fill="none" stroke="currentColor" stroke-width="2">
      <polyline points="15,18 9,12 15,6"/>
    </symbol>
    
    <!-- Chevron Right Icon -->
    <symbol id="icon-chevron-right" viewBox="0 0 24 24" fill="none" stroke="currentColor" stroke-width="2">
      <polyline points="9,18 15,12 9,6"/>
    </symbol>
    
    <!-- Check Icon -->
    <symbol id="icon-check" viewBox="0 0 24 24" fill="none" stroke="currentColor" stroke-width="2">
      <polyline points="20,6 9,17 4,12"/>
    </symbol>
    
    <!-- Alert Circle Icon -->
    <symbol id="icon-alert-circle" viewBox="0 0 24 24" fill="none" stroke="currentColor" stroke-width="2">
      <circle cx="12" cy="12" r="10"/>
      <line x1="12" y1="8" x2="12" y2="12"/>
      <line x1="12" y1="16" x2="12.01" y2="16"/>
    </symbol>
    
    <!-- Info Icon -->
    <symbol id="icon-info" viewBox="0 0 24 24" fill="none" stroke="currentColor" stroke-width="2">
      <circle cx="12" cy="12" r="10"/>
      <line x1="12" y1="16" x2="12" y2="12"/>
      <line x1="12" y1="8" x2="12.01" y2="8"/>
    </symbol>
    
    <!-- Home Icon -->
    <symbol id="icon-home" viewBox="0 0 24 24" fill="none" stroke="currentColor" stroke-width="2">
      <path d="M3 9l9-7 9 7v11a2 2 0 0 1-2 2H5a2 2 0 0 1-2-2z"/>
      <polyline points="9,22 9,12 15,12 15,22"/>
    </symbol>
    
    <!-- Calendar Icon -->
    <symbol id="icon-calendar" viewBox="0 0 24 24" fill="none" stroke="currentColor" stroke-width="2">
      <rect x="3" y="4" width="18" height="18" rx="2" ry="2"/>
      <line x1="16" y1="2" x2="16" y2="6"/>
      <line x1="8" y1="2" x2="8" y2="6"/>
      <line x1="3" y1="10" x2="21" y2="10"/>
    </symbol>
    
    <!-- Tag Icon -->
    <symbol id="icon-tag" viewBox="0 0 24 24" fill="none" stroke="currentColor" stroke-width="2">
      <path d="M20.59 13.41l-7.17 7.17a2 2 0 0 1-2.83 0L2 12V2h10l8.59 8.59a2 2 0 0 1 0 2.82z"/>
      <line x1="7" y1="7" x2="7.01" y2="7"/>
    </symbol>
    
    <!-- Link Icon -->
    <symbol id="icon-link" viewBox="0 0 24 24" fill="none" stroke="currentColor" stroke-width="2">
      <path d="M10 13a5 5 0 0 0 7.54.54l3-3a5 5 0 0 0-7.07-7.07l-1.72 1.71"/>
      <path d="M14 11a5 5 0 0 0-7.54-.54l-3 3a5 5 0 0 0 7.07 7.07l1.71-1.71"/>
    </symbol>
    
    <!-- Copy Icon -->
    <symbol id="icon-copy" viewBox="0 0 24 24" fill="none" stroke="currentColor" stroke-width="2">
      <rect x="9" y="9" width="13" height="13" rx="2" ry="2"/>
      <path d="M5 15H4a2 2 0 0 1-2-2V4a2 2 0 0 1 2-2h9a2 2 0 0 1 2 2v1"/>
    </symbol>
    
    <!-- Globe Icon -->
    <symbol id="icon-globe" viewBox="0 0 24 24" fill="none" stroke="currentColor" stroke-width="2">
      <circle cx="12" cy="12" r="10"/>
      <line x1="2" y1="12" x2="22" y2="12"/>
      <path d="M12 2a15.3 15.3 0 0 1 4 10 15.3 15.3 0 0 1-4 10 15.3 15.3 0 0 1-4-10 15.3 15.3 0 0 1 4-10z"/>
    </symbol>
  </defs>
</svg>
